<?xml version="1.0" encoding="UTF-8"?>
<svg width="512pt" height="512pt" version="1.1" viewBox="0 0 512 512" xmlns="http://www.w3.org/2000/svg">
 <g>
  <path d="m512 256c0 141.39-114.61 256-256 256s-256-114.61-256-256 114.61-256 256-256 256 114.61 256 256" fill="#aa001e"/>
  <path d="m194.64 143.15c-15.594 0-32.203 6.9375-45.445 18.941-13.238 12.004-23.102 29.379-23.68 49.977-0.33594 12.074 2.0391 23.922 6.25 35.168h-11.184c-1.7266-0.023437-3.3906 0.64453-4.6211 1.8555-1.2305 1.2109-1.9219 2.8672-1.9219 4.5938 0 1.7266 0.69141 3.3789 1.9219 4.5898 1.2305 1.2148 2.8945 1.8828 4.6211 1.8594h76.375c2.3047 0.039063 4.457-1.1523 5.6445-3.125l16.223-27.711 24.684 70.738c0.89844 2.543 3.2812 4.2578 5.9766 4.3047 2.6953 0.042968 5.1367-1.5938 6.1172-4.1055l21.766-55.82 10.68 40.203c0.73047 2.6133 3.0195 4.4883 5.7266 4.6914s5.25-1.3086 6.3633-3.7852l11.086-25.391h18.641c1.7266 0.023438 3.3906-0.64453 4.6172-1.8594 1.2305-1.2109 1.9219-2.8633 1.9219-4.5898 0-1.7266-0.69141-3.3828-1.9219-4.5938-1.2266-1.2109-2.8906-1.8789-4.6172-1.8555h-22.875c-2.5547 0.035156-4.8438 1.5781-5.8438 3.9297l-5.4414 12.395-10.98-41.414c-0.73828-2.6641-3.0859-4.5586-5.8438-4.7188-2.7578-0.16016-5.3125 1.4531-6.3516 4.0117l-22.57 57.84-23.578-67.41c-1.0352-2.9648-4.0547-4.75-7.1523-4.2344-1.8672 0.33984-3.4883 1.4844-4.4336 3.125l-21.461 36.477h-47.562c-4.9219-11.406-7.6836-23-7.3555-34.762 0.46875-16.715 8.4023-30.797 19.449-40.809 11.043-10.016 25.203-15.621 36.777-15.621 21.836 0 35.328 8.207 43.832 16.426s11.484 16.02 11.484 16.02c0.94141 2.5273 3.3516 4.2031 6.0469 4.2031s5.1055-1.6758 6.0469-4.2031c0 0 2.9805-7.8008 11.484-16.02 8.5078-8.2188 21.996-16.426 43.832-16.426 11.574 0 25.734 5.6055 36.777 15.621 11.047 10.012 18.98 24.094 19.449 40.809 0.32812 11.711-2.4648 23.418-7.3555 34.762h-10.984c-1.7266-0.023437-3.3906 0.64453-4.6172 1.8555-1.2305 1.2109-1.9219 2.8672-1.9219 4.5938 0 1.7266 0.69141 3.3789 1.9219 4.5898 1.2266 1.2148 2.8906 1.8828 4.6172 1.8594h4.4336c-3.7266 6.4102-8 12.652-12.797 18.742-16.258 20.633-37.465 38.852-55.621 52.395-1.3984 1.0078-2.3359 2.5312-2.6016 4.2344-0.26953 1.7031 0.15625 3.4414 1.1797 4.8281s2.5625 2.3086 4.2656 2.5547c1.707 0.24609 3.4414-0.19922 4.8164-1.2383 18.723-13.969 40.695-32.707 58.039-54.715 6.6719-8.4688 12.691-17.391 17.531-26.801h16.93c1.7266 0.023438 3.3867-0.64453 4.6172-1.8594 1.2305-1.2109 1.9219-2.8633 1.9219-4.5898 0-1.7266-0.69141-3.3828-1.9219-4.5938-1.2305-1.2109-2.8906-1.8789-4.6172-1.8555h-11.188c4.2344-11.25 6.5898-23.059 6.25-35.168-0.57812-20.598-10.441-37.973-23.68-49.977-13.238-12.004-29.852-18.941-45.445-18.941-25.18 0-42.375 9.9766-52.797 20.051-3.9883 3.8516-6.2969 7.4141-8.5664 10.781-2.2695-3.3672-4.5781-6.9297-8.5664-10.781-10.422-10.074-27.617-20.051-52.797-20.051zm-34.562 133c-2.5352-0.074219-4.8789 1.3477-5.9883 3.6289-1.1094 2.2812-0.77734 5.0039 0.85156 6.9531 37.77 48.09 97.938 81.312 97.938 81.312 3.1172 1.7266 7.043 0.59766 8.7695-2.5195 1.7227-3.1133 0.59766-7.0391-2.5195-8.7656 0 0-58.703-32.902-94.113-77.988-1.1602-1.5781-2.9766-2.543-4.9375-2.6211z" fill="#fff"/>
 </g>
</svg>
